<?xml version="1.0" encoding="utf-8"?>
<!-- Generator: Adobe Illustrator 16.0.0, SVG Export Plug-In . SVG Version: 6.00 Build 0)  -->
<!DOCTYPE svg PUBLIC "-//W3C//DTD SVG 1.1//EN" "http://www.w3.org/Graphics/SVG/1.1/DTD/svg11.dtd">
<svg version="1.1" id="Layer_1" xmlns="http://www.w3.org/2000/svg" xmlns:xlink="http://www.w3.org/1999/xlink" x="0px" y="0px"
	 width="982.125px" height="624.225px" viewBox="0 0 982.125 624.225" enable-background="new 0 0 982.125 624.225"
	 xml:space="preserve">
<g>
	<path fill-rule="evenodd" clip-rule="evenodd" fill="#4B4A4B" d="M715.074,343.761c-39.844-0.025-71.954-31.949-71.912-71.494
		c0.042-39.319,32.378-70.963,72.466-70.912c39.273,0.049,71.443,32.182,71.377,71.291
		C786.938,311.941,754.728,343.786,715.074,343.761z"/>
</g>
<g>
	<path fill-rule="evenodd" clip-rule="evenodd" fill="#4B4A4B" d="M265.086,343.761c-39.844-0.025-71.954-31.949-71.912-71.494
		c0.042-39.319,32.378-70.963,72.466-70.912c39.273,0.049,71.443,32.182,71.377,71.291
		C336.95,311.941,304.74,343.786,265.086,343.761z"/>
</g>
<g>
	<path fill-rule="evenodd" clip-rule="evenodd" fill="#91C54C" d="M335.088,535.146c-2.769-10.082-4.326-20.412-6.274-30.663
		c0.624-9.427-0.081-18.86,0.854-28.321c2.034-20.559,7.61-39.972,16.888-58.379c0.89-1.766,1.585-3.628,2.372-5.446
		c0.454-0.479,1.032-0.887,1.346-1.443c11.968-21.229,28.256-38.555,47.78-52.966c9.835-6.594,20.11-12.38,30.914-17.258
		c3.498-1.579,6.136-1.356,9.622,0.708c52.339,36.82,112.425,0.227,116.81-2.112c1.626-0.867,3.516,0.649,5.156,1.37
		c9.772,4.293,19.191,9.238,28.029,15.263c1.463,0.997,2.73,2.56,4.809,2.374c0.588,1.904,2.246,2.789,3.712,3.834
		c5.14,3.665,9.782,7.918,14.295,12.295c12.571,12.192,22.738,26.217,31.231,41.489c7.164,15.069,12.906,30.586,15.836,47.112
		c2.369,13.36,2.592,26.797,2.471,40.281c-1.51,10.676-3.389,21.281-6.062,31.736c-4.768,10.782-9.327,21.646-16.454,31.216
		c-17.488,23.485-41.164,37.971-68.511,46.878c-31.261,10.182-63.403,12.682-96.088,10.25c-26.284-1.955-51.634-7.389-75.445-18.975
		c-29.386-14.3-50.832-36.015-62.191-67.062C335.91,536.567,335.458,535.871,335.088,535.146z"/>
</g>
<g>
	<path fill-rule="evenodd" clip-rule="evenodd" fill="#91C54C" d="M522.4,124.824c3.722,1.553,8.006,0.624,12.1,0.357
		c6.335-0.413,12.616-1.731,18.863-3.405c2.576-0.689,2.92-0.146,2.511,2.023c-1.062,5.627-2.17,11.257-1.967,16.845
		c0.117,3.223,0.127,6.453,0.352,9.667c0.284,4.019,0.909,8.024,2.308,11.638c1.777,4.583-0.675,7.688-4.555,10.973
		c-5.962,5.047-11.84,10.206-18.483,14.586c-9.579,6.315-19.435,12.29-30.141,17.111c-14.947,6.729-30.342,11.728-46.398,14.926
		c-14.642,2.918-29.133,4.194-43.578,3.814c-4.547-0.12-9.01-0.548-13.374-1.303c-1.472-0.254-2.379-0.827-2.741-2.062
		c-3.007-10.263-9.287-18.88-16.669-26.892c-1.914-2.075-3.832-4.208-6.363-5.858c-1.71-1.113-1.471-2.038,0.547-3.166
		c11.032-6.167,19.925-13.907,26.005-23.72c0.647-1.045,1.242-2.095,1.499-3.22c-1.241,0.589-1.83,1.656-2.646,2.526
		c-14.382,15.312-32.526,23.33-54.262,24.527c-11.805,0.652-22.318-1.723-31.547-6.484c-7.381-3.808-14.174-8.412-17.92-15.182
		c-3.028-5.472-5.916-11.069-6.705-17.427c-1.304-10.511,1.242-20.75,7.289-30.984c4.795-8.113,11.61-14.878,19.919-20.63
		c4.974-3.441,10.468-6.389,16.376-8.542c2.226-0.812,3.367-0.337,3.241,1.588c-0.475,7.279,1.021,14.153,2.532,21.036
		c0.666,3.034,2.463,5.612,3.423,8.521c0.123,0.37,0.45,0.926,1.035,0.62c0.849-0.44,0.48-1.148,0.336-1.689
		c-1.093-4.089-1.454-8.326-1.449-12.623c0.015-16.396,5.652-32.115,16.451-47.119c7.207-10.012,16.345-18.807,27.281-26.26
		c7.074-4.819,14.729-9,22.822-12.228c10.018-3.997,20.364-6.895,31.051-8.386c10.505-1.468,20.82-1.709,30.796-0.429
		c14.543,1.865,27.693,6.121,38.977,13.323c5.009,3.197,9.326,6.947,13.656,10.709c0.324,0.281,0.471,0.705,0.736,1.038
		c0.34,0.419,0.207,1.508,1.216,1.024c0.776-0.371,0.161-1.129-0.135-1.62c-4.49-7.486-10.455-13.978-17.742-19.589
		c-2.078-1.603-4.272-3.075-6.587-4.434c-1.337-0.785-1.272-1.356,0.396-2.081c7.622-3.315,15.505-4.974,23.637-5.796
		c4.939-0.5,9.774-0.658,14.604-0.48c9.262,0.344,17.783,2.282,25.603,5.623c6.018,2.572,11.525,5.652,16.132,9.815
		c8.212,7.423,14.353,15.836,16.749,26.235c1.346,5.83,1.966,11.822,1.142,17.98c-0.958,7.155-4.072,14.06-7.236,21.011
		c-3.975,8.737-10.688,16.031-18.45,22.671c-6.812,5.83-14.685,10.648-23.53,14.16c-5.546,2.2-11.13,4.002-16.907,5.311
		c-3.395,0.77-6.864,0.817-10.209,1.972c-0.344-0.149-0.674-0.357-1.131-0.138c-0.059,0.025-0.044,0.181-0.062,0.276
		C521.596,124.933,521.997,124.88,522.4,124.824z"/>
</g>
<path fill="#4B4A4B" d="M93.569,350.389c31.058,0.02,56.285-24.922,56.338-55.699c0.052-30.632-25.145-55.799-55.904-55.838
	c-31.398-0.039-56.725,24.745-56.758,55.541C37.213,325.365,62.362,350.369,93.569,350.389z"/>
<path fill="#4B4A4B" d="M140.446,489.179c-0.139-0.253-0.277-0.506-0.407-0.762l-0.53-1.037l-0.308-1.122
	c-1.64-5.972-2.71-11.903-3.745-17.64c-0.319-1.768-0.638-3.535-0.973-5.3l-0.271-1.422l0.096-1.444
	c0.177-2.678,0.186-5.454,0.195-8.394c0.012-3.955,0.025-8.045,0.45-12.343c1.599-16.162,6.075-31.631,13.303-45.971
	c0.247-0.491,0.53-1.176,0.83-1.9c0.196-0.475,0.392-0.948,0.596-1.418l0.798-1.847l1.384-1.458
	c3.021-5.22,6.453-10.229,10.264-15.026c-0.955-1.02-1.929-2.024-2.938-3.003c-2.542-2.466-5.157-4.861-8.053-6.926
	c-0.826-0.589-1.759-1.087-2.091-2.16c-1.171,0.104-1.885-0.775-2.709-1.337c-4.979-3.394-10.284-6.18-15.789-8.598
	c-0.925-0.406-1.988-1.261-2.905-0.771c-2.471,1.316-36.317,21.931-65.802,1.189c-1.964-1.163-3.45-1.289-5.42-0.399
	c-6.086,2.749-11.874,6.008-17.414,9.722c-10.999,8.118-20.175,17.879-26.916,29.837c-0.178,0.313-0.503,0.544-0.759,0.814
	c-0.442,1.023-0.835,2.072-1.336,3.067c-5.227,10.369-8.367,21.305-9.514,32.886c-0.526,5.33-0.13,10.644-0.481,15.954
	c1.099,5.775,1.975,11.595,3.535,17.273c0.208,0.408,0.463,0.801,0.62,1.229c6.398,17.489,18.479,29.722,35.034,37.776
	c13.412,6.527,27.692,9.588,42.499,10.689c18.412,1.37,36.519-0.038,54.129-5.773c3.232-1.053,6.366-2.253,9.403-3.601
	C143.443,496.507,141.835,492.922,140.446,489.179z"/>
<g>
	<path fill-rule="evenodd" clip-rule="evenodd" fill="#4B4A4B" d="M832.707,431.367c-2.106-11.887-6.237-23.047-11.39-33.885
		c-6.108-10.984-13.421-21.071-22.463-29.841c-3.245-3.148-6.584-6.207-10.281-8.843c-1.055-0.752-2.246-1.388-2.67-2.758
		c-1.494,0.134-2.406-0.99-3.458-1.707c-6.356-4.333-13.131-7.89-20.159-10.978c-1.181-0.519-2.539-1.609-3.709-0.985
		c-3.154,1.682-46.369,28.001-84.014,1.519c-2.508-1.484-4.405-1.645-6.92-0.509c-7.771,3.509-15.161,7.67-22.234,12.412
		c-6.31,4.657-12.144,9.741-17.442,15.309c10.102,10.952,19.004,23.428,27.052,37.899l0.22,0.395l0.193,0.408
		c8.584,18.056,14.142,34.647,16.991,50.724c2.428,13.688,2.83,27.043,2.688,42.883l-0.009,0.934l-0.131,0.924
		c-1.808,12.782-3.829,23.352-6.363,33.263l-0.292,1.143l-0.477,1.078l-0.241,0.547c10.483,2.905,21.279,4.586,32.307,5.406
		c23.508,1.749,46.626-0.049,69.109-7.372c19.669-6.406,36.697-16.825,49.275-33.716c5.126-6.883,8.406-14.697,11.834-22.452
		c1.923-7.52,3.274-15.147,4.36-22.825C834.571,450.64,834.411,440.977,832.707,431.367z"/>
</g>
<g>
	<path fill-rule="evenodd" clip-rule="evenodd" fill="#91C54C" d="M418.627,223.422c-1.739,0.002-3.478-0.017-5.215-0.062
		c1.657,0.044,3.315,0.065,4.974,0.065C418.466,223.425,418.546,223.422,418.627,223.422z"/>
</g>
<g>
	<path fill-rule="evenodd" clip-rule="evenodd" fill="#91C54C" d="M564.354,170.969c-1.88,4.237-5.273,7.111-6.849,8.444
		c-0.676,0.572-1.35,1.146-2.024,1.719c-5.386,4.578-10.954,9.312-17.272,13.476c-8.146,5.372-19.069,12.245-31.33,17.767
		c-15.608,7.027-31.834,12.246-48.228,15.512c-13.464,2.683-27.011,4.044-40.266,4.044c-1.726,0-3.475-0.023-5.199-0.068
		c-4.985-0.132-9.897-0.611-14.595-1.424c-1.083-0.187-2.035-0.477-2.892-0.826c-0.501,3.99-0.766,8.055-0.771,12.182
		c-0.058,54.983,44.586,99.369,99.984,99.404c55.133,0.035,99.917-44.241,100.01-98.876
		C594.972,214.405,583.204,189.049,564.354,170.969z"/>
</g>
<path fill="#4B4A4B" d="M980.719,419.005c-1.65-9.311-4.885-18.051-8.921-26.54c-4.784-8.604-10.512-16.504-17.593-23.372
	c-2.543-2.466-5.158-4.861-8.054-6.926c-0.825-0.589-1.76-1.087-2.09-2.16c-1.171,0.104-1.885-0.775-2.71-1.337
	c-4.979-3.394-10.284-6.18-15.789-8.598c-0.925-0.406-1.989-1.261-2.904-0.771c-2.471,1.316-36.318,21.931-65.803,1.189
	c-1.963-1.163-3.45-1.289-5.42-0.399c-6.086,2.749-11.874,6.008-17.415,9.722c-5.491,4.054-10.527,8.517-15.034,13.458
	c4.385,5.692,8.449,11.884,12.24,18.701l0.176,0.315l0.155,0.326c6.219,13.083,10.247,25.111,12.313,36.774
	c1.762,9.931,2.054,19.597,1.951,31.053l-0.007,0.747l-0.104,0.739c-1.306,9.235-2.769,16.876-4.602,24.046l-0.233,0.913
	l-0.381,0.862l-0.729,1.65c-1.421,3.227-2.872,6.498-4.478,9.76c13.098,6.173,27.007,9.109,41.415,10.182
	c18.412,1.37,36.519-0.038,54.13-5.773c15.404-5.018,28.741-13.179,38.593-26.408c4.015-5.391,6.583-11.511,9.27-17.585
	c1.505-5.89,2.563-11.863,3.414-17.877C982.179,434.1,982.053,426.531,980.719,419.005z"/>
<path fill="#4B4A4B" d="M888.585,350.389c31.059,0.02,56.285-24.922,56.339-55.699c0.052-30.632-25.146-55.799-55.905-55.838
	c-31.397-0.039-56.725,24.745-56.757,55.541C832.229,325.365,857.378,350.369,888.585,350.389z"/>
<g>
	<path fill-rule="evenodd" clip-rule="evenodd" fill="#4B4A4B" d="M316.244,514.506c-0.438-2.43-0.892-4.942-1.354-7.377
		l-0.338-1.777l0.12-1.806c0.25-3.773,0.262-7.658,0.274-11.771c0.017-5.462,0.034-11.108,0.618-17.01
		c2.204-22.277,8.373-43.596,18.335-63.361c0.37-0.733,0.774-1.712,1.203-2.747c0.269-0.65,0.538-1.3,0.817-1.945l0.998-2.309
		l1.73-1.823c0.043-0.046,0.086-0.091,0.128-0.135c5.242-9.08,11.374-17.709,18.344-25.856c-2.586-3.106-5.319-6.103-8.252-8.947
		c-3.246-3.148-6.585-6.207-10.282-8.843c-1.054-0.752-2.247-1.388-2.669-2.758c-1.495,0.134-2.406-0.99-3.458-1.707
		c-6.356-4.333-13.131-7.89-20.16-10.978c-1.18-0.519-2.539-1.609-3.708-0.985c-3.154,1.682-46.37,28.001-84.014,1.519
		c-2.507-1.484-4.405-1.645-6.92-0.509c-7.77,3.509-15.161,7.67-22.234,12.412c-14.042,10.365-25.757,22.826-34.365,38.095
		c-0.226,0.4-0.641,0.694-0.968,1.039c-0.565,1.308-1.066,2.646-1.706,3.917c-6.673,13.239-10.684,27.201-12.146,41.987
		c-0.673,6.805-0.166,13.59-0.615,20.37c1.401,7.373,2.521,14.803,4.513,22.054c0.267,0.521,0.591,1.022,0.792,1.569
		c8.17,22.33,23.594,37.948,44.73,48.232c17.125,8.333,35.358,12.241,54.262,13.647c23.508,1.749,46.626-0.049,69.11-7.372
		c0.773-0.252,1.536-0.521,2.301-0.786C319.121,530.429,317.657,522.336,316.244,514.506z"/>
</g>
</svg>
