<?xml version="1.0" encoding="UTF-8" standalone="no"?>
<svg width="304px" height="304px" viewBox="0 0 304 304" version="1.1" xmlns="http://www.w3.org/2000/svg" xmlns:xlink="http://www.w3.org/1999/xlink" xmlns:sketch="http://www.bohemiancoding.com/sketch/ns">
    <!-- Generator: Sketch 3.2.2 (9983) - http://www.bohemiancoding.com/sketch -->
    <title>icon_locations</title>
    <desc>Created with Sketch.</desc>
    <defs></defs>
    <g id="Page-1" stroke="none" stroke-width="1" fill="none" fill-rule="evenodd" sketch:type="MSPage">
        <g id="icon_locations" sketch:type="MSLayerGroup">
            <path d="M303.25,151.884 C303.25,235.555 235.421,303.384 151.75,303.384 C68.079,303.384 0.25,235.555 0.25,151.884 C0.25,68.213 68.079,0.384 151.75,0.384 C235.421,0.384 303.25,68.213 303.25,151.884" id="Fill-1-4" fill="#FFFFFF" sketch:type="MSShapeGroup"></path>
            <path d="M217.042235,208.714 L207.473235,180 L196.973235,180 L202.804235,208 L100.142235,208 L105.973235,180 L95.4732346,180 L85.8972346,208.714 C83.4682346,216.022 87.7732346,222 95.4732346,222 L207.473235,222 C215.173235,222 219.478235,216.022 217.042235,208.714 L217.042235,208.714 Z M186.473235,117 C186.473235,97.673 170.807235,82 151.473235,82 C132.139235,82 116.473235,97.673 116.473235,117 C116.473235,150.425 151.473235,187 151.473235,187 C151.473235,187 186.473235,150.425 186.473235,117 L186.473235,117 Z M132.573235,117.42 C132.573235,106.983 141.029235,98.527 151.473235,98.527 C161.917235,98.527 170.373235,106.983 170.373235,117.42 C170.373235,127.864 161.910235,136.32 151.473235,136.32 C141.036235,136.32 132.573235,127.857 132.573235,117.42 L132.573235,117.42 Z" id="Shape" fill="#222222" sketch:type="MSShapeGroup"></path>
        </g>
    </g>
</svg>